<?xml version="1.0" standalone="no"?>
<!DOCTYPE svg PUBLIC "-//W3C//DTD SVG 20010904//EN"
 "http://www.w3.org/TR/2001/REC-SVG-20010904/DTD/svg10.dtd">
<svg version="1.0" xmlns="http://www.w3.org/2000/svg"
 width="96.000000pt" height="96.000000pt" viewBox="0 0 96.000000 96.000000"
 preserveAspectRatio="xMidYMid meet">

<g transform="translate(0.000000,96.000000) scale(0.100000,-0.100000)"
fill="#000000" stroke="none">
<path d="M372 740 c-91 -10 -248 -48 -260 -64 -5 -6 -19 -89 -31 -185 l-22
-174 23 -46 c29 -58 96 -96 151 -86 51 10 95 40 114 80 l17 35 116 0 116 0 17
-35 c19 -40 63 -70 114 -80 55 -10 122 28 151 86 l23 46 -22 174 c-12 96 -27
179 -33 186 -16 17 -162 52 -268 63 -102 11 -101 11 -206 0z m356 -79 c41 -11
75 -21 76 -23 5 -7 36 -266 36 -302 0 -51 -44 -96 -93 -96 -47 0 -93 39 -101
85 l-7 35 -159 0 -159 0 -7 -35 c-8 -46 -54 -85 -101 -85 -49 0 -93 45 -93 96
0 36 31 295 36 302 3 5 111 33 164 43 79 14 326 3 408 -20z"/>
<path d="M270 570 c0 -27 -3 -30 -30 -30 -27 0 -30 -3 -30 -30 0 -27 3 -30 30
-30 27 0 30 -3 30 -30 0 -27 3 -30 30 -30 27 0 30 3 30 30 0 27 3 30 30 30 27
0 30 3 30 30 0 27 -3 30 -30 30 -27 0 -30 3 -30 30 0 27 -3 30 -30 30 -27 0
-30 -3 -30 -30z"/>
<path d="M640 584 c-11 -12 -10 -18 3 -32 16 -15 18 -15 34 0 13 14 14 20 3
32 -7 9 -16 16 -20 16 -4 0 -13 -7 -20 -16z"/>
<path d="M580 524 c-11 -12 -10 -18 3 -32 16 -15 18 -15 34 0 13 14 14 20 3
32 -7 9 -16 16 -20 16 -4 0 -13 -7 -20 -16z"/>
<path d="M700 524 c-11 -12 -10 -18 3 -32 16 -15 18 -15 34 0 13 14 14 20 3
32 -7 9 -16 16 -20 16 -4 0 -13 -7 -20 -16z"/>
<path d="M640 464 c-11 -12 -10 -18 3 -32 16 -15 18 -15 34 0 13 14 14 20 3
32 -7 9 -16 16 -20 16 -4 0 -13 -7 -20 -16z"/>
</g>
</svg>
