<?xml version="1.0" standalone="no"?>
<!DOCTYPE svg PUBLIC "-//W3C//DTD SVG 20010904//EN"
 "http://www.w3.org/TR/2001/REC-SVG-20010904/DTD/svg10.dtd">
<svg version="1.0" xmlns="http://www.w3.org/2000/svg"
 width="100.000000pt" height="100.000000pt" viewBox="0 0 100.000000 100.000000"
 preserveAspectRatio="xMidYMid meet">

<g transform="translate(0.000000,100.000000) scale(0.100000,-0.100000)"
fill="#000000" stroke="none">
<path d="M16 944 c-14 -13 -16 -62 -16 -384 0 -322 2 -371 16 -384 14 -14 71
-16 484 -16 413 0 470 2 484 16 14 13 16 62 16 384 0 322 -2 371 -16 384 -14
14 -71 16 -484 16 -413 0 -470 -2 -484 -16z m884 -374 l0 -290 -400 0 -400 0
0 290 0 290 400 0 400 0 0 -290z"/>
<path d="M260 740 c-11 -11 -20 -33 -20 -50 l0 -30 260 0 260 0 0 30 c0 17 -9
39 -20 50 -19 19 -33 20 -240 20 -207 0 -221 -1 -240 -20z"/>
<path d="M242 493 l3 -128 255 0 255 0 3 128 3 127 -261 0 -261 0 3 -127z"/>
<path d="M360 120 c0 -18 -7 -20 -58 -20 -70 0 -91 -13 -99 -63 l-6 -37 303 0
303 0 -6 37 c-8 50 -29 63 -99 63 -51 0 -58 2 -58 20 0 19 -7 20 -140 20 -133
0 -140 -1 -140 -20z"/>
</g>
</svg>
