<?xml version="1.0" standalone="no"?>
<!DOCTYPE svg PUBLIC "-//W3C//DTD SVG 20010904//EN"
 "http://www.w3.org/TR/2001/REC-SVG-20010904/DTD/svg10.dtd">
<svg version="1.0" xmlns="http://www.w3.org/2000/svg"
 width="96.000000pt" height="96.000000pt" viewBox="0 0 96.000000 96.000000"
 preserveAspectRatio="xMidYMid meet">

<g transform="translate(0.000000,96.000000) scale(0.100000,-0.100000)"
fill="#000000" stroke="none">
<path d="M447 862 c-10 -10 -17 -28 -17 -41 0 -14 -9 -25 -27 -32 -22 -8 -30
-6 -53 16 -50 48 -97 24 -86 -44 8 -51 -15 -73 -67 -64 -66 10 -89 -38 -42
-87 22 -23 24 -31 16 -53 -7 -19 -18 -27 -34 -27 -26 0 -57 -28 -57 -52 0 -21
33 -48 59 -48 14 0 25 -9 32 -27 8 -22 6 -30 -16 -53 -48 -50 -24 -97 44 -86
51 8 73 -15 64 -67 -10 -66 38 -89 87 -42 23 22 31 24 53 16 19 -7 27 -18 27
-34 0 -26 28 -57 52 -57 21 0 48 33 48 59 0 14 9 25 27 32 22 8 30 6 53 -16
50 -48 97 -24 86 44 -8 51 15 73 67 64 66 -10 89 38 42 87 -22 23 -24 31 -16
53 7 19 18 27 34 27 26 0 57 28 57 52 0 21 -33 48 -59 48 -14 0 -25 9 -32 27
-8 22 -6 30 16 53 48 50 24 97 -44 86 -51 -8 -73 15 -64 67 10 66 -38 89 -87
42 -23 -22 -31 -24 -53 -16 -19 7 -27 18 -27 34 0 26 -28 57 -52 57 -8 0 -22
-8 -31 -18z m-42 -294 c-27 -24 -38 -44 -42 -73 -4 -36 -10 -43 -55 -68 -28
-16 -53 -26 -56 -23 -14 15 -13 108 3 155 19 58 92 132 147 147 l33 10 3 -58
c3 -54 1 -58 -33 -90z m241 77 c36 -36 54 -64 63 -98 12 -42 11 -130 -2 -143
-3 -3 -27 7 -55 23 -45 25 -51 32 -55 68 -4 29 -15 49 -41 73 -33 30 -36 36
-36 91 l0 59 38 -11 c21 -7 59 -33 88 -62z m-166 -285 c14 0 37 6 52 14 24 13
30 11 79 -17 l53 -30 -37 -32 c-84 -73 -210 -73 -294 0 l-37 32 53 30 c49 28
55 30 79 17 15 -8 38 -14 52 -14z"/>
</g>
</svg>
