<?xml version="1.0" standalone="no"?>
<!DOCTYPE svg PUBLIC "-//W3C//DTD SVG 20010904//EN"
 "http://www.w3.org/TR/2001/REC-SVG-20010904/DTD/svg10.dtd">
<svg version="1.0" xmlns="http://www.w3.org/2000/svg"
 width="96.000000pt" height="96.000000pt" viewBox="0 0 96.000000 96.000000"
 preserveAspectRatio="xMidYMid meet">

<g transform="translate(0.000000,96.000000) scale(0.100000,-0.100000)"
fill="#000000" stroke="none">
<path d="M190 822 c-65 -32 -70 -55 -70 -342 0 -377 -17 -360 360 -360 377 0
360 -17 360 360 0 377 17 360 -360 360 -223 0 -259 -2 -290 -18z m567 -64 c13
-13 23 -33 23 -50 l0 -28 -300 0 -300 0 0 27 c0 15 10 37 22 50 21 23 23 23
277 23 248 0 255 -1 278 -22z m23 -335 c0 -267 30 -243 -299 -243 -331 0 -301
-24 -301 242 l0 198 300 0 300 0 0 -197z"/>
<path d="M327 513 c-15 -14 -6 -38 25 -70 l32 -33 -33 -34 c-35 -36 -38 -68
-7 -74 22 -5 116 84 116 108 0 9 -22 37 -48 63 -45 44 -70 56 -85 40z"/>
<path d="M484 345 c-15 -38 2 -46 88 -43 81 3 83 4 83 28 0 24 -2 25 -83 28
-67 2 -83 0 -88 -13z"/>
</g>
</svg>
